<svg t="1685096928575" class="icon" viewBox="0 0 1024 1024" version="1.1" xmlns="http://www.w3.org/2000/svg" p-id="1670" width="200" height="200"><path d="M298.791789 130.627566h429.419355c92.790616 0 168.164223 75.373607 168.164223 168.164223v429.419355c0 92.790616-75.373607 168.164223-168.164223 168.164223h-429.419355c-92.790616 0-168.164223-75.373607-168.164223-168.164223v-429.419355c0-92.790616 75.373607-168.164223 168.164223-168.164223z" fill="#87EB00" p-id="1671"></path><path d="M339.553595 289.587801l-75.974193 357.348973 27.927272 53.4522h182.878593l42.641642 81.980058h41.140176l17.717302-81.980058h113.210557l74.472728-354.946628-29.729033-55.854545h-394.285044z" p-id="1672"></path><path d="M425.470499 346.367249l-63.361877 291.885044h96.093841l13.513197-77.775953 41.740762 77.775953h87.085044l8.107918-32.731965-57.055718-99.69736 106.003519-123.120235 7.207038-39.038123h-91.589443l-69.668035 78.076246 16.215836-75.373607h-94.292082z" fill="#FFFFFF" p-id="1673"></path></svg>