<svg width="96" height="96" viewBox="0 0 96 96" fill="none" xmlns="http://www.w3.org/2000/svg">
<rect width="96" height="96" rx="24" fill="url(#paint0_linear_ai)"/>
<circle cx="48" cy="40" r="16" fill="#E91E63"/>
<circle cx="48" cy="40" r="12" fill="#F06292"/>
<circle cx="44" cy="36" r="2" fill="#AD1457"/>
<circle cx="52" cy="36" r="2" fill="#AD1457"/>
<path d="M40 44L48 48L56 44" stroke="#AD1457" stroke-width="2" stroke-linecap="round"/>
<rect x="32" y="56" width="8" height="16" rx="4" fill="#9C27B0"/>
<rect x="56" y="56" width="8" height="16" rx="4" fill="#9C27B0"/>
<rect x="44" y="60" width="8" height="12" rx="4" fill="#673AB7"/>
<circle cx="36" cy="60" r="2" fill="#BA68C8"/>
<circle cx="60" cy="60" r="2" fill="#BA68C8"/>
<circle cx="48" cy="64" r="2" fill="#9575CD"/>
<path d="M24 28L32 32L28 40L20 36L24 28Z" fill="#FFB74D"/>
<path d="M72 28L64 32L68 40L76 36L72 28Z" fill="#FFB74D"/>
<path d="M20 64L28 68L24 76L16 72L20 64Z" fill="#FFB74D"/>
<path d="M76 64L68 68L72 76L80 72L76 64Z" fill="#FFB74D"/>
<defs>
<linearGradient id="paint0_linear_ai" x1="0" y1="0" x2="96" y2="96" gradientUnits="userSpaceOnUse">
<stop stop-color="#667EEA"/>
<stop offset="1" stop-color="#764BA2"/>
</linearGradient>
</defs>
</svg>
