<svg width="96" height="96" viewBox="0 0 96 96" fill="none" xmlns="http://www.w3.org/2000/svg">
<rect width="96" height="96" rx="24" fill="url(#paint0_linear_books)"/>
<rect x="20" y="24" width="32" height="44" rx="4" fill="#4CAF50"/>
<rect x="24" y="28" width="24" height="36" rx="2" fill="#81C784"/>
<rect x="28" y="32" width="16" height="2" fill="#2E7D32"/>
<rect x="28" y="38" width="12" height="2" fill="#2E7D32"/>
<rect x="28" y="44" width="14" height="2" fill="#2E7D32"/>
<rect x="28" y="50" width="10" height="2" fill="#2E7D32"/>
<rect x="44" y="28" width="32" height="44" rx="4" fill="#2196F3"/>
<rect x="48" y="32" width="24" height="36" rx="2" fill="#64B5F6"/>
<rect x="52" y="36" width="16" height="2" fill="#0D47A1"/>
<rect x="52" y="42" width="12" height="2" fill="#0D47A1"/>
<rect x="52" y="48" width="14" height="2" fill="#0D47A1"/>
<rect x="52" y="54" width="10" height="2" fill="#0D47A1"/>
<defs>
<linearGradient id="paint0_linear_books" x1="0" y1="0" x2="96" y2="96" gradientUnits="userSpaceOnUse">
<stop stop-color="#667EEA"/>
<stop offset="1" stop-color="#764BA2"/>
</linearGradient>
</defs>
</svg>
