<svg width="96" height="96" viewBox="0 0 96 96" fill="none" xmlns="http://www.w3.org/2000/svg">
<rect width="96" height="96" rx="24" fill="url(#paint0_linear_rocket)"/>
<path d="M48 20L44 28L40 36L36 44L40 48L44 52L48 56L52 52L56 48L60 44L56 36L52 28L48 20Z" fill="#FFE082"/>
<path d="M48 20L52 28L56 36L60 44L56 48L52 52L48 56L48 44L48 32L48 20Z" fill="#FFC107"/>
<path d="M36 44L40 48L44 52L48 56L48 64L44 68L40 64L36 60L36 52L36 44Z" fill="#FF5722"/>
<path d="M60 44L56 48L52 52L48 56L48 64L52 68L56 64L60 60L60 52L60 44Z" fill="#E53935"/>
<path d="M40 36L44 40L48 44L52 40L56 36L52 32L48 28L44 32L40 36Z" fill="#2196F3"/>
<circle cx="42" cy="38" r="2" fill="#1976D2"/>
<circle cx="54" cy="38" r="2" fill="#1976D2"/>
<path d="M36 64L40 68L44 72L48 76L52 72L56 68L60 64L56 68L52 72L48 74L44 72L40 68L36 64Z" fill="#FF9800"/>
<defs>
<linearGradient id="paint0_linear_rocket" x1="0" y1="0" x2="96" y2="96" gradientUnits="userSpaceOnUse">
<stop stop-color="#667EEA"/>
<stop offset="1" stop-color="#764BA2"/>
</linearGradient>
</defs>
</svg>
